Coordinates
version=1
nRows=54
nColumns=12
inDegrees=yes

Units are S.I. units (second, meters, Newtons, ...)
Angles are in degrees

endheader
time	SC_y	SC_z	SC_x	AC_y	AC_z	AC_x	GH_y	GH_z	GH_yy	EL_x	PS_y
       0.0               -20.7           35.4          73.11          55.31          -1.76         -16.29          59.68          10.76           75.4           51.5          113.2
   0.02028               -20.7           35.4           73.1          55.31         -1.762         -16.28          59.67          10.76          75.41           51.5          113.2
   0.04057               -20.7          35.39          73.09          55.32         -1.764         -16.28          59.66          10.76          75.41          51.49          113.2
   0.06085              -20.71          35.39          73.09          55.32         -1.766         -16.28          59.66          10.76          75.41          51.49          113.2
   0.08113              -20.71          35.38          73.08          55.32         -1.769         -16.28          59.65          10.77          75.42          51.49          113.2
    0.1014              -20.72          35.38          73.07          55.32         -1.771         -16.27          59.64          10.77          75.42          51.49          113.2
    0.1217              -20.72          35.37          73.06          55.32         -1.774         -16.27          59.63          10.77          75.43          51.48          113.1
     0.142              -20.73          35.37          73.05          55.32         -1.777         -16.27          59.62          10.78          75.44          51.48          113.1
    0.1623              -20.74          35.36          73.05          55.33          -1.78         -16.26          59.61          10.78          75.44          51.48          113.1
    0.1825              -20.74          35.36          73.04          55.33         -1.784         -16.26           59.6          10.78          75.45          51.47          113.1
    0.2028              -20.75          35.35          73.02          55.33         -1.787         -16.26          59.59          10.79          75.45          51.47          113.1
    0.2231              -20.76          35.34          73.01          55.33         -1.791         -16.25          59.58          10.79          75.46          51.46          113.0
    0.2434              -20.77          35.34           73.0          55.34         -1.795         -16.25          59.57           10.8          75.47          51.46          113.0
    0.2637              -20.78          35.33          72.99          55.34           -1.8         -16.24          59.55           10.8          75.48          51.45          113.0
     0.284              -20.79          35.32          72.97          55.34         -1.805         -16.24          59.54          10.81          75.49          51.45          113.0
    0.3042               -20.8          35.31          72.96          55.34          -1.81         -16.23          59.52          10.81           75.5          51.44          112.9
    0.3245              -20.81           35.3          72.94          55.35         -1.816         -16.23           59.5          10.82          75.51          51.44          112.9
    0.3448              -20.82          35.29          72.92          55.35         -1.822         -16.22          59.48          10.83          75.52          51.43          112.8
    0.3651              -20.84          35.28           72.9          55.36         -1.829         -16.21          59.46          10.84          75.53          51.42          112.8
    0.3854              -20.85          35.26          72.88          55.36         -1.837          -16.2          59.44          10.84          75.55          51.41          112.8
    0.4057              -20.87          35.25          72.85          55.37         -1.845          -16.2          59.41          10.85          75.56           51.4          112.7
    0.4259              -20.89          35.23          72.82          55.37         -1.854         -16.19          59.39          10.86          75.58          51.39          112.6
    0.4462              -20.91          35.22          72.79          55.38         -1.864         -16.18          59.36          10.87           75.6          51.38          112.6
    0.4665              -20.93           35.2          72.76          55.39         -1.876         -16.16          59.32          10.89          75.62          51.37          112.5
    0.4868              -20.96          35.17          72.72          55.39         -1.888         -16.15          59.28           10.9          75.64          51.36          112.4
    0.5071              -20.98          35.15          72.68           55.4         -1.902         -16.14          59.24          10.92          75.67          51.34          112.4
    0.5273              -21.02          35.12          72.64          55.41         -1.917         -16.12          59.19          10.93           75.7          51.32          112.3
    0.5476              -21.05          35.09          72.58          55.42         -1.935          -16.1          59.14          10.95          75.73           51.3          112.1
    0.5679              -21.09          35.06          72.53          55.43         -1.955         -16.08          59.08          10.98          75.77          51.28          112.0
    0.5882              -21.14          35.02          72.46          55.45         -1.977         -16.06          59.01           11.0          75.81          51.26          111.9
    0.6085              -21.19          34.97          72.38          55.46         -2.003         -16.03          58.93          11.03          75.86          51.23          111.7
    0.6288              -21.25          34.92          72.29          55.48         -2.032          -16.0          58.84          11.06          75.91           51.2          111.5
     0.649              -21.32          34.86          72.19           55.5         -2.066         -15.96          58.74           11.1          75.98          51.16          111.3
    0.6693               -21.4          34.79          72.08          55.53         -2.105         -15.92          58.62          11.15          76.05          51.11          111.1
    0.6896              -21.49          34.71          71.94          55.56         -2.152         -15.87          58.47           11.2          76.14          51.06          110.8
    0.7099               -21.6          34.62          71.78          55.59         -2.206         -15.82          58.31          11.26          76.24           51.0          110.5
    0.7302              -21.74          34.51          71.58          55.63         -2.271         -15.75          58.11          11.33          76.36          50.93          110.1
    0.7505              -21.89          34.37          71.35          55.68         -2.348         -15.67          57.87          11.42          76.51          50.84          109.6
    0.7707              -22.09          34.21          71.07          55.74         -2.442         -15.57          57.58          11.53          76.68          50.74          109.0
     0.791              -22.32          34.01          70.73          55.81         -2.556         -15.45          57.23          11.66           76.9          50.61          108.3
    0.8113              -22.61          33.76          70.31           55.9         -2.697          -15.3           56.8          11.81          77.16          50.45          107.4
    0.8316              -22.97          33.45          69.79          56.01         -2.874         -15.12          56.26          12.01          77.49          50.25          106.4
    0.8519              -23.42          33.06          69.12          56.14         -3.096         -14.88          55.58          12.26          77.91          50.01          105.0
    0.8722              -23.99          32.57          68.28          56.32         -3.378         -14.59          54.71          12.58          78.44          49.69          103.2
    0.8924              -24.73          31.94          67.21          56.54         -3.739         -14.21           53.6          12.99          79.12          49.29          101.0
    0.9127              -25.67          31.13          65.82          56.83         -4.202         -13.72          52.18          13.51          79.99          48.77          98.14
     0.933              -26.88          30.09          64.06           57.2         -4.794          -13.1          50.36          14.18           81.1          48.11          94.49
    0.9533               -28.4          28.79          61.84          57.66         -5.538         -12.32          48.08          15.02           82.5          47.28          89.89
    0.9736              -30.25           27.2          59.14          58.23         -6.445         -11.36           45.3          16.04           84.2          46.26          84.29
    0.9938              -32.39          25.36           56.0          58.88         -7.497         -10.26          42.07          17.23          86.18          45.09          77.79
     1.014              -34.71          23.37          52.61          59.59         -8.635         -9.061          38.58          18.51          88.31          43.82          70.76
     1.034              -37.03          21.38          49.21           60.3         -9.773         -7.865          35.08           19.8          90.45          42.55          63.73
     1.055              -39.18          19.54          46.08          60.95         -10.82          -6.76          31.86          20.98          92.42          41.37          57.23
     1.075              -41.03          17.96          43.37          61.52         -11.73         -5.807          29.07          22.01          94.13          40.36          51.63
